<?xml version="1.0" encoding="UTF-8"?>
<svg width="1432px" height="534px" viewBox="0 0 1432 534" version="1.1" xmlns="http://www.w3.org/2000/svg" xmlns:xlink="http://www.w3.org/1999/xlink">
    <title>logo</title>
    <g id="Page-1" stroke="none" stroke-width="1" fill="none" fill-rule="evenodd">
        <g id="Logo" transform="translate(-51.000000, -21.000000)">
            <g id="logo" transform="translate(51.000000, 21.000000)">
                <path d="M886,0 L893,112 L911,93 L911,118 L971,62 L936,175 L944.519,180 L1432,180 L1432,534 L0,534 L0,180 L754.286,180 L737,147 L758,147 L758,130 L746,83 L786,112 L777,0 L830,93 L837.788269,82.7272727 L857,93 L886,0 Z M820.002861,163.977273 L820.002,180 L830.803,180 L820.002861,163.977273 Z M851.868383,175.056818 L851.868,180 L854.503,180 L851.868383,175.056818 Z M875.58226,175.056818 L873.257,180 L876.095,180 L875.58226,175.056818 Z" id="background" fill="#F5D404"></path>
                <g id="text" transform="translate(13.000000, 31.000000)" fill="#292929">
                    <path d="M71.050293,391 C86.1870117,391 99.594401,387.663411 111.272461,380.990234 C122.950521,374.317057 132.004069,364.836263 138.433105,352.547852 C144.862142,340.25944 148.07666,326.180664 148.07666,310.311523 L148.07666,310.311523 L148.07666,293.954102 C148.07666,278.166341 144.841797,264.087565 138.37207,251.717773 C131.902344,239.347982 122.889486,229.846842 111.333496,223.214355 C99.7775065,216.581868 86.7159831,213.265625 72.1489258,213.265625 L72.1489258,213.265625 L22.4663086,213.265625 L22.4663086,391 L71.050293,391 Z M71.1723633,378.304688 L37.480957,378.304688 L37.480957,226.083008 L72.3930664,226.083008 C90.6222331,226.164388 105.311361,232.349284 116.460449,244.637695 C127.609538,256.926107 133.184082,273.283529 133.184082,293.709961 L133.184082,293.709961 L133.184082,309.334961 C133.184082,330.493815 127.528158,347.278483 116.216309,359.688965 C104.90446,372.099447 89.8898112,378.304688 71.1723633,378.304688 L71.1723633,378.304688 Z M186.040527,444.344727 C201.177246,444.344727 212.367025,436.328776 219.609863,420.296875 L219.609863,420.296875 L222.539551,413.460938 L278.936035,258.919922 L263.188965,258.919922 L224.614746,370.003906 L183.599121,258.919922 L167.60791,258.919922 L217.412598,389.901367 L210.942871,407.723633 C207.850423,416.349935 204.086589,422.433105 199.651367,425.973145 C195.216146,429.513184 189.417806,431.283203 182.256348,431.283203 L182.256348,431.283203 L174.687988,430.550781 L174.810059,442.635742 C178.797689,443.775065 182.541178,444.344727 186.040527,444.344727 Z M316.04541,391 L316.04541,300.545898 C319.381999,290.943034 324.529297,283.313639 331.487305,277.657715 C338.445312,272.00179 346.440918,269.173828 355.474121,269.173828 C366.297689,269.173828 374.171224,272.062826 379.094727,277.84082 C384.018229,283.618815 386.520671,292.407878 386.602051,304.208008 L386.602051,304.208008 L386.602051,391 L401.128418,391 L401.128418,304.330078 C401.047038,288.379557 397.547689,276.416667 390.630371,268.441406 C383.713053,260.466146 373.174316,256.478516 359.01416,256.478516 C350.062337,256.478516 341.883626,258.614746 334.478027,262.887207 C327.072428,267.159668 320.887533,273.364909 315.92334,281.50293 L315.92334,281.50293 L315.435059,258.919922 L301.519043,258.919922 L301.519043,391 L316.04541,391 Z M504.521973,393.441406 C518.275228,393.441406 530.400879,390.104818 540.898926,383.431641 C551.396973,376.758464 559.473958,367.236979 565.129883,354.867188 C570.785807,342.497396 573.61377,328.133789 573.61377,311.776367 L573.61377,311.776367 L573.61377,290.536133 C573.369629,274.666992 570.399251,260.710286 564.702637,248.666016 C559.006022,236.621745 550.929036,227.303711 540.47168,220.711914 C530.014323,214.120117 517.949707,210.824219 504.277832,210.824219 C490.605957,210.824219 478.520996,214.181152 468.022949,220.89502 C457.524902,227.608887 449.407227,237.211751 443.669922,249.703613 C437.932617,262.195475 435.063965,276.538737 435.063965,292.733398 L435.063965,292.733398 L435.063965,311.043945 C435.063965,336.27181 441.452311,356.311686 454.229004,371.163574 C467.005697,386.015462 483.77002,393.441406 504.521973,393.441406 Z M504.521973,380.379883 C487.75765,380.379883 474.492676,374.215332 464.727051,361.88623 C454.961426,349.557129 450.078613,332.853841 450.078613,311.776367 L450.078613,311.776367 L450.078613,293.22168 C450.078613,271.411784 454.981771,254.423665 464.788086,242.257324 C474.594401,230.090983 487.75765,224.007812 504.277832,224.007812 C521.123535,224.007812 534.388509,230.070638 544.072754,242.196289 C553.756999,254.32194 558.599121,271.086263 558.599121,292.489258 L558.599121,292.489258 L558.599121,311.288086 C558.599121,333.016602 553.838379,349.96403 544.316895,362.130371 C534.79541,374.296712 521.530436,380.379883 504.521973,380.379883 Z" id="DynO" fill-rule="nonzero"></path>
                    <path d="M645.435547,391 L645.435547,349.496094 L641.285156,264.413086 L684.375977,391 L712.696289,391 L755.665039,264.535156 L751.514648,349.496094 L751.514648,391 L794.483398,391 L794.483398,213.265625 L738.086914,213.265625 L698.536133,336.922852 L658.863281,213.265625 L602.588867,213.265625 L602.588867,391 L645.435547,391 Z M867.359375,391 L867.359375,174 L824.634766,174 L824.634766,391 L867.359375,391 Z M971.973633,393.441406 C987.110352,393.441406 1001.02637,391.203451 1013.72168,386.727539 C1026.41699,382.251628 1036.06055,376.351562 1042.65234,369.027344 L1042.65234,369.027344 L1042.65234,296.029297 L970.020508,296.029297 L970.020508,325.448242 L999.805664,325.448242 L999.805664,353.036133 C994.35319,358.000326 986.052409,360.482422 974.90332,360.482422 C961.882487,360.482422 952.340658,356.026855 946.277832,347.115723 C940.215007,338.20459 937.183594,324.878581 937.183594,307.137695 L937.183594,307.137695 L937.183594,296.395508 C937.264974,279.468424 940.235352,266.447591 946.094727,257.333008 C951.954102,248.218424 960.254883,243.661133 970.99707,243.661133 C979.948893,243.661133 986.866211,245.777018 991.749023,250.008789 C996.631836,254.24056 999.805664,261.320638 1001.27051,271.249023 L1001.27051,271.249023 L1042.53027,271.249023 C1040.49577,251.148112 1033.35465,236.031738 1021.10693,225.899902 C1008.85921,215.768066 991.667643,210.702148 969.532227,210.702148 C954.395508,210.702148 941.069499,214.221842 929.554199,221.26123 C918.0389,228.300618 909.188802,238.351074 903.003906,251.412598 C896.81901,264.474121 893.726562,279.753255 893.726562,297.25 L893.726562,297.25 L893.848633,312.630859 C894.825195,338.021484 902.271484,357.837565 916.1875,372.079102 C930.103516,386.320638 948.698893,393.441406 971.973633,393.441406 Z M1110.40137,391 L1110.40137,316.78125 L1173.51172,316.78125 L1173.51172,391 L1216.11426,391 L1216.11426,213.265625 L1173.51172,213.265625 L1173.51172,283.822266 L1110.40137,283.822266 L1110.40137,213.265625 L1067.55469,213.265625 L1067.55469,391 L1110.40137,391 Z M1233,391 L1233,294 L1283.00862,293.999625 L1283.00879,246.34668 L1230.64062,246.34668 L1230.64062,213.265625 L1379.2002,213.265625 L1379.2002,246.34668 L1325.85547,246.34668 L1325.85462,293.999625 L1380,294 L1380,391 L1233,391 Z" id="MIGHT" fill-rule="nonzero"></path>
                    <path d="M860.068136,412 C921.044421,440.666667 990.182698,455 1067.48297,455 C1144.78323,455 1220.26754,436.333333 1293.93587,399 L1326,399 C1232.33367,447 1146.16132,471 1067.48297,471 C988.80461,471 908.310288,451.333333 826,412 L860.068136,412 Z" id="Cord"></path>
                    <polygon id="Boom!" points="783.329041 197.71875 745 129.09375 778.537911 151.3125 752.609442 80.4375 789.811159 117.5625 774.592275 0 829.267525 104.625 829.267525 63 846.177396 100.6875 868.723891 0 868.723891 112.5 890.143062 80.4375 885.0701 117.5625 942 58.5 899.725322 165.9375 934.672389 151.3125 908.74392 182.25 923.962804 198 885.0701 191.8125 890.143062 178.3125 876.051502 185.625 890.143062 142.3125 861.39628 165.9375 858.014306 133.3125 849.559371 151.3125 839.97711 133.3125 839.97711 160.875 815.739628 124.875 815.739628 170.4375 794.320458 151.3125 801.084406 198"></polygon>
                </g>
            </g>
        </g>
    </g>
</svg>